<svg width="200" height="200" viewBox="0 0 200 200" fill="none" xmlns="http://www.w3.org/2000/svg">
<g clip-path="url(#clip0_1637_297)">
<path d="M0 0H100V100H0V0Z" fill="url(#paint0_linear_1637_297)"/>
<path d="M0 0H100V100H0V0Z" fill="url(#paint1_linear_1637_297)" style="mix-blend-mode:overlay"/>
<path d="M100 200L0 200L8.74228e-06 100L100 100L100 200Z" fill="url(#paint2_linear_1637_297)"/>
<path d="M100 200L0 200L8.74228e-06 100L100 100L100 200Z" fill="url(#paint3_linear_1637_297)" style="mix-blend-mode:overlay"/>
<path d="M200 100L100 100L100 -8.74228e-06L200 0L200 100Z" fill="url(#paint4_linear_1637_297)"/>
<path d="M200 100L100 100L100 -8.74228e-06L200 0L200 100Z" fill="url(#paint5_linear_1637_297)" style="mix-blend-mode:overlay"/>
<path d="M100 100H200V200H100V100Z" fill="url(#paint6_linear_1637_297)"/>
<path d="M100 100H200V200H100V100Z" fill="url(#paint7_linear_1637_297)" style="mix-blend-mode:overlay"/>
</g>
<defs>
<linearGradient id="paint0_linear_1637_297" x1="0" y1="50" x2="100" y2="50" gradientUnits="userSpaceOnUse">
<stop stop-color="#008080"/>
<stop offset="0.0358968" stop-color="#6A8081"/>
<stop offset="0.5" stop-color="#A08081"/>
<stop offset="0.964103" stop-color="#D08081"/>
<stop offset="1" stop-color="#FF8080"/>
</linearGradient>
<linearGradient id="paint1_linear_1637_297" x1="50" y1="0" x2="50" y2="100" gradientUnits="userSpaceOnUse">
<stop stop-color="#7B0080"/>
<stop offset="0.0358968" stop-color="#805988"/>
<stop offset="0.5" stop-color="#80918C"/>
<stop offset="0.964103" stop-color="#80C88A"/>
<stop offset="1" stop-color="#80FF80"/>
</linearGradient>
<linearGradient id="paint2_linear_1637_297" x1="100" y1="150" x2="4.37114e-06" y2="150" gradientUnits="userSpaceOnUse">
<stop stop-color="#008080"/>
<stop offset="0.0358968" stop-color="#6A8081"/>
<stop offset="0.5" stop-color="#A08081"/>
<stop offset="0.964103" stop-color="#D08081"/>
<stop offset="1" stop-color="#FF8080"/>
</linearGradient>
<linearGradient id="paint3_linear_1637_297" x1="50" y1="200" x2="50" y2="100" gradientUnits="userSpaceOnUse">
<stop stop-color="#7B0080"/>
<stop offset="0.0358968" stop-color="#805988"/>
<stop offset="0.5" stop-color="#80918C"/>
<stop offset="0.964103" stop-color="#80C88A"/>
<stop offset="1" stop-color="#80FF80"/>
</linearGradient>
<linearGradient id="paint4_linear_1637_297" x1="200" y1="50" x2="100" y2="50" gradientUnits="userSpaceOnUse">
<stop stop-color="#008080"/>
<stop offset="0.0358968" stop-color="#6A8081"/>
<stop offset="0.5" stop-color="#A08081"/>
<stop offset="0.964103" stop-color="#D08081"/>
<stop offset="1" stop-color="#FF8080"/>
</linearGradient>
<linearGradient id="paint5_linear_1637_297" x1="150" y1="100" x2="150" y2="-4.37114e-06" gradientUnits="userSpaceOnUse">
<stop stop-color="#7B0080"/>
<stop offset="0.0358968" stop-color="#805988"/>
<stop offset="0.5" stop-color="#80918C"/>
<stop offset="0.964103" stop-color="#80C88A"/>
<stop offset="1" stop-color="#80FF80"/>
</linearGradient>
<linearGradient id="paint6_linear_1637_297" x1="100" y1="150" x2="200" y2="150" gradientUnits="userSpaceOnUse">
<stop stop-color="#008080"/>
<stop offset="0.0358968" stop-color="#6A8081"/>
<stop offset="0.5" stop-color="#A08081"/>
<stop offset="0.964103" stop-color="#D08081"/>
<stop offset="1" stop-color="#FF8080"/>
</linearGradient>
<linearGradient id="paint7_linear_1637_297" x1="150" y1="100" x2="150" y2="200" gradientUnits="userSpaceOnUse">
<stop stop-color="#7B0080"/>
<stop offset="0.0358968" stop-color="#805988"/>
<stop offset="0.5" stop-color="#80918C"/>
<stop offset="0.964103" stop-color="#80C88A"/>
<stop offset="1" stop-color="#80FF80"/>
</linearGradient>
<clipPath id="clip0_1637_297">
<rect width="200" height="200" fill="white"/>
</clipPath>
</defs>
</svg>
