<svg width="50" height="600" viewBox="0 0 50 600" fill="none" xmlns="http://www.w3.org/2000/svg">
<g clip-path="url(#clip0_1637_265)">
<rect x="49.9531" y="-0.5" width="100" height="50" transform="rotate(90 49.9531 -0.5)" fill="url(#paint0_linear_1637_265)"/>
<path d="M49.9531 99.5L49.9531 199.5L-0.0468794 199.5L-0.046875 99.5L49.9531 99.5Z" fill="url(#paint1_linear_1637_265)"/>
<path d="M49.9531 199.5L49.9531 299.5L-0.0468794 299.5L-0.046875 199.5L49.9531 199.5Z" fill="url(#paint2_linear_1637_265)"/>
<path d="M49.9531 299.5L49.9531 399.5L-0.0468794 399.5L-0.046875 299.5L49.9531 299.5Z" fill="url(#paint3_linear_1637_265)"/>
<path d="M49.9531 399.5L49.9531 499.5L-0.0468794 499.5L-0.046875 399.5L49.9531 399.5Z" fill="url(#paint4_linear_1637_265)"/>
<path d="M49.9531 499.5L49.9531 599.5L-0.0468794 599.5L-0.046875 499.5L49.9531 499.5Z" fill="url(#paint5_linear_1637_265)"/>
</g>
<defs>
<linearGradient id="paint0_linear_1637_265" x1="49.9531" y1="24.5" x2="149.953" y2="24.5" gradientUnits="userSpaceOnUse">
<stop stop-color="#7B0080"/>
<stop offset="1" stop-color="#80FF80"/>
</linearGradient>
<linearGradient id="paint1_linear_1637_265" x1="24.9531" y1="99.5" x2="24.9531" y2="199.5" gradientUnits="userSpaceOnUse">
<stop stop-color="#7B0080"/>
<stop offset="1" stop-color="#80FF80"/>
</linearGradient>
<linearGradient id="paint2_linear_1637_265" x1="24.9531" y1="199.5" x2="24.9531" y2="299.5" gradientUnits="userSpaceOnUse">
<stop stop-color="#7B0080"/>
<stop offset="1" stop-color="#80FF80"/>
</linearGradient>
<linearGradient id="paint3_linear_1637_265" x1="24.9531" y1="299.5" x2="24.9531" y2="399.5" gradientUnits="userSpaceOnUse">
<stop stop-color="#7B0080"/>
<stop offset="1" stop-color="#80FF80"/>
</linearGradient>
<linearGradient id="paint4_linear_1637_265" x1="24.9531" y1="399.5" x2="24.9531" y2="499.5" gradientUnits="userSpaceOnUse">
<stop stop-color="#7B0080"/>
<stop offset="1" stop-color="#80FF80"/>
</linearGradient>
<linearGradient id="paint5_linear_1637_265" x1="24.9531" y1="499.5" x2="24.9531" y2="599.5" gradientUnits="userSpaceOnUse">
<stop stop-color="#7B0080"/>
<stop offset="1" stop-color="#80FF80"/>
</linearGradient>
<clipPath id="clip0_1637_265">
<rect width="600" height="50" fill="white" transform="translate(50) rotate(90)"/>
</clipPath>
</defs>
</svg>
